<?xml version="1.0" encoding="UTF-8"?>
<svg xmlns="http://www.w3.org/2000/svg" xmlns:xlink="http://www.w3.org/1999/xlink" viewBox="0 0 48 48" width="48px" height="48px">
<g id="surface37775641">
<path style=" stroke:none;fill-rule:nonzero;fill:rgb(21.568628%,76.862746%,70.588237%);fill-opacity:1;" d="M 24 48 C 10.746094 48 0 37.253906 0 24 C 0 10.746094 10.746094 0 24 0 C 37.253906 0 48 10.746094 48 24 C 48 37.253906 37.253906 48 24 48 Z M 24 48 "/>
<path style=" stroke:none;fill-rule:nonzero;fill:rgb(100%,56.078434%,0%);fill-opacity:1;" d="M 11.199219 34.398438 L 23.386719 11.550781 C 23.644531 11.066406 24.339844 11.074219 24.582031 11.566406 L 28.800781 20 Z M 11.199219 34.398438 "/>
<path style=" stroke:none;fill-rule:nonzero;fill:rgb(100%,62.7451%,0%);fill-opacity:1;" d="M 11.199219 34.394531 L 15.636719 7.035156 C 15.753906 6.320312 16.714844 6.164062 17.050781 6.804688 L 25.601562 23.195312 Z M 11.199219 34.394531 "/>
<path style=" stroke:none;fill-rule:nonzero;fill:rgb(100%,43.529412%,0%);fill-opacity:1;" d="M 11.207031 34.390625 L 11.367188 34.261719 L 25.390625 22.789062 L 21.433594 15.210938 Z M 11.207031 34.390625 "/>
<path style=" stroke:none;fill-rule:nonzero;fill:rgb(100%,76.862746%,0%);fill-opacity:1;" d="M 11.199219 34.398438 L 32.53125 13.828125 C 32.980469 13.398438 33.726562 13.652344 33.816406 14.265625 L 36.800781 34.398438 L 24.800781 41.394531 C 24.3125 41.667969 23.71875 41.667969 23.230469 41.394531 Z M 11.199219 34.398438 "/>
</g>
</svg>
