<?xml version="1.0" encoding="UTF-8"?>
<svg xmlns="http://www.w3.org/2000/svg" xmlns:xlink="http://www.w3.org/1999/xlink" viewBox="0 0 96 96" width="96px" height="96px">
<g id="surface37988726">
<path style=" stroke:none;fill-rule:nonzero;fill:rgb(26.666668%,76.078433%,84.313726%);fill-opacity:1;" d="M 48 96 C 21.492188 96 0 74.507812 0 48 C 0 21.492188 21.492188 0 48 0 C 74.507812 0 96 21.492188 96 48 C 96 74.507812 74.507812 96 48 96 Z M 48 96 "/>
<path style=" stroke:none;fill-rule:nonzero;fill:rgb(100%,100%,100%);fill-opacity:1;" d="M 48.039062 15.601562 C 30.199219 15.601562 15.675781 30.109375 15.667969 47.949219 C 15.664062 53.652344 17.160156 59.21875 19.992188 64.125 L 15.597656 80.398438 L 32.550781 76.394531 C 37.28125 78.972656 42.601562 80.328125 48.019531 80.332031 L 48.03125 80.332031 C 65.867188 80.332031 80.382812 65.816406 80.394531 47.980469 C 80.398438 39.332031 77.035156 31.203125 70.925781 25.085938 C 64.816406 18.972656 56.695312 15.601562 48.039062 15.601562 Z M 48.03125 22.078125 C 54.953125 22.082031 61.457031 24.78125 66.34375 29.667969 C 71.234375 34.558594 73.917969 41.058594 73.914062 47.976562 C 73.90625 62.242188 62.300781 73.851562 48.023438 73.851562 C 43.707031 73.847656 39.425781 72.761719 35.660156 70.707031 L 33.476562 69.515625 L 31.066406 70.085938 L 24.6875 71.589844 L 26.242188 65.808594 L 26.945312 63.210938 L 25.605469 60.882812 C 23.34375 56.96875 22.144531 52.496094 22.148438 47.949219 C 22.15625 33.6875 33.765625 22.078125 48.03125 22.078125 Z M 36.582031 33.015625 C 36.042969 33.015625 35.167969 33.21875 34.425781 34.027344 C 33.683594 34.835938 31.589844 36.789062 31.589844 40.765625 C 31.589844 44.746094 34.488281 48.589844 34.894531 49.132812 C 35.296875 49.671875 40.488281 58.09375 48.707031 61.332031 C 55.539062 64.027344 56.925781 63.496094 58.410156 63.359375 C 59.894531 63.226562 63.195312 61.40625 63.871094 59.515625 C 64.542969 57.628906 64.546875 56.003906 64.34375 55.667969 C 64.144531 55.332031 63.605469 55.132812 62.792969 54.726562 C 61.988281 54.320312 58.011719 52.371094 57.269531 52.101562 C 56.527344 51.832031 55.984375 51.695312 55.449219 52.503906 C 54.910156 53.316406 53.363281 55.132812 52.890625 55.667969 C 52.417969 56.210938 51.949219 56.285156 51.136719 55.878906 C 50.328125 55.46875 47.722656 54.613281 44.632812 51.859375 C 42.230469 49.71875 40.605469 47.074219 40.132812 46.265625 C 39.664062 45.460938 40.089844 45.015625 40.492188 44.613281 C 40.855469 44.25 41.296875 43.671875 41.703125 43.195312 C 42.105469 42.722656 42.242188 42.386719 42.511719 41.847656 C 42.78125 41.3125 42.644531 40.835938 42.441406 40.429688 C 42.242188 40.027344 40.667969 36.03125 39.949219 34.433594 C 39.34375 33.089844 38.703125 33.058594 38.128906 33.035156 C 37.65625 33.015625 37.121094 33.015625 36.582031 33.015625 Z M 36.582031 33.015625 "/>
</g>
</svg>
